<svg xmlns="http://www.w3.org/2000/svg" viewBox="0 0 66 66"><defs><style>.cls-1{fill:#ff4e5e;fill-rule:evenodd;}.cls-2{fill:#fff;}</style></defs><title>Plan de travail 72</title><g id="Calque_7" data-name="Calque 7"><path class="cls-1" d="M55.7,53.16a4,4,0,1,0,0-8.06h-.65a4,4,0,1,1,0-8.07h3.66a4,4,0,1,0,0-8.06H51.83a4,4,0,1,1,0-8.07h2.61a4,4,0,1,0,0-8.06H18.26a4,4,0,0,0,0,8.06H20.7a4,4,0,0,1,0,8.07H7.29a4,4,0,1,0,0,8.06h3.06a4,4,0,0,1,4,4c0,2.21-1.35,4-3,4s-3,1.81-3,4a4,4,0,0,0,4,4Z"/><path class="cls-2" d="M33.14,35.77a2.85,2.85,0,0,1-2.79-2.53l-.52-3.52a2.56,2.56,0,0,1,2.38-3.1c4.5-.57,6.56-2,6.56-4.49V22c0-2.32-1.75-3.67-4.75-3.67a9.65,9.65,0,0,0-6,2.07,3.91,3.91,0,0,1-2.32.83,3.66,3.66,0,0,1-3.62-3.62,3.6,3.6,0,0,1,1.34-2.79,16.23,16.23,0,0,1,10.75-3.72c7.44,0,12.51,3.82,12.51,10.7v.1c0,6.56-4.55,9.25-10.18,10.39l-.16.93a2.88,2.88,0,0,1-2.79,2.53Zm0,3.41a4.35,4.35,0,0,1,4.5,4.39v.1a4.5,4.5,0,0,1-9,0v-.1A4.35,4.35,0,0,1,33.14,39.18Z"/></g></svg>