<?xml version="1.0" encoding="utf-8"?>
<!-- Generator: Adobe Illustrator 16.0.0, SVG Export Plug-In . SVG Version: 6.00 Build 0)  -->
<!DOCTYPE svg PUBLIC "-//W3C//DTD SVG 1.1//EN" "http://www.w3.org/Graphics/SVG/1.1/DTD/svg11.dtd">
<svg version="1.1" id="Calque_1" xmlns="http://www.w3.org/2000/svg" xmlns:xlink="http://www.w3.org/1999/xlink" x="0px" y="0px"
	 width="360px" height="300px" viewBox="0 0 360 300" enable-background="new 0 0 360 300" xml:space="preserve">
<g>
	<path fill-rule="evenodd" clip-rule="evenodd" fill="#FF4E5E" d="M308.384,256.186c12.561,0,22.832-10.262,22.832-22.803
		c0-12.545-10.271-22.813-22.832-22.813h-3.672c-12.555,0-22.83-10.264-22.83-22.805c0-12.539,10.275-22.807,22.83-22.807h20.686
		c12.561,0,22.833-10.262,22.833-22.808c0-12.541-10.272-22.804-22.833-22.804h-38.913c-12.56,0-22.831-10.268-22.831-22.813
		c0-12.541,10.271-22.803,22.831-22.803h14.796c12.556,0,22.832-10.263,22.832-22.808s-10.276-22.809-22.832-22.809H96.653
		c-12.554,0-22.831,10.264-22.831,22.809s10.276,22.808,22.831,22.808h13.768c12.56,0,22.833,10.262,22.833,22.803
		c0,12.545-10.272,22.813-22.833,22.813H34.602c-12.56,0-22.833,10.263-22.833,22.804c0,12.546,10.272,22.808,22.833,22.808h17.282
		c12.56,0,22.833,10.268,22.833,22.807c0,12.541-7.641,22.805-16.986,22.805c-9.347,0-16.998,10.268-16.998,22.813
		c0,12.541,10.276,22.803,22.833,22.803H308.384z"/>
	<g>
		<g>
			<path fill-rule="evenodd" clip-rule="evenodd" fill="#BEC7E4" d="M254.753,271.334c-5.021,1.742-13.527,3.307-25.512,4.699
				c-35.011,4.277-68.281,4.252-99.811-0.074c-31.529-4.375-47.691-8.604-48.488-12.682c1.144-4.078,18.973-7.682,53.487-10.816
				c34.463-3.133,68.081-3.854,100.854-2.164c32.724,1.691,46.077,5.299,40.06,10.816
				C271.961,264.299,265.097,267.705,254.753,271.334z"/>
		</g>
		<g>
			<path fill-rule="evenodd" clip-rule="evenodd" fill="#BEC7E4" d="M218.573,272.229c0.746-3.082,8.081-4.848,22.006-5.295
				c13.877-0.447,25.463,2.512,34.764,8.877c1.939,1.242,3.23,2.461,3.878,3.656c0.896,1.641,1.144,3.156,0.747,4.549
				c-0.349,1.441-1.369,2.488-3.059,3.133c-6.664,2.686-13.453,3.955-20.366,3.805c-7.808-0.15-16.187-2.064-25.139-5.744
				c-4.625-1.891-8.105-4.178-10.443-6.861C218.922,276.01,218.126,273.971,218.573,272.229z"/>
		</g>
		<g>
			<g>
				<path fill-rule="evenodd" clip-rule="evenodd" fill="#D7A354" d="M87.507,160.633c13.206-22.963,31.147-39.648,53.822-50.054
					c0.212-0.104,0.424-0.204,0.634-0.299l0.521,0.074c0.15,0.101,0.224,0.349,0.224,0.746c0,0.155-0.013,0.316-0.038,0.485
					c-0.022,0.096-0.047,0.195-0.075,0.298c0.144-0.011,0.293-0.023,0.447-0.037c6.545,5.013,14.153,10.806,22.828,17.382
					c46.365,35.137,69.875,52.954,70.531,53.448c0.097,0.063,0.195,0.123,0.298,0.188c-0.037-0.018-0.074-0.029-0.111-0.039
					c1.896,1.477,3.563,3.59,4.999,6.342c2.19,4.186,7.013,8.662,14.47,13.428c7.455,4.775,12.192,9.463,14.212,14.061
					c2.017,4.6,2.812,10.58,2.386,17.941c-0.43,7.352-8.063,15.246-22.9,23.684c-14.825,8.449-36.185,13.074-64.079,13.875h-7.534
					c-0.792,0.006-1.588,0.006-2.386,0l-23.125,0.373c-32.177-0.895-54.88-7.906-68.107-21.035
					c-9.051-8.902-13.576-20.664-13.576-35.285C70.948,198.354,76.466,179.83,87.507,160.633z"/>
			</g>
			<g>
				<defs>
					<path id="SVGID_1_" d="M87.507,160.633c13.206-22.963,31.147-39.648,53.822-50.054c0.212-0.104,0.424-0.204,0.634-0.299
						l0.521,0.074c0.15,0.101,0.224,0.349,0.224,0.746c0,0.155-0.013,0.316-0.038,0.485c-0.022,0.096-0.047,0.195-0.075,0.298
						c0.144-0.011,0.293-0.023,0.447-0.037c6.545,5.013,14.153,10.806,22.828,17.382c46.365,35.137,69.875,52.954,70.531,53.448
						c0.097,0.063,0.195,0.123,0.298,0.188c-0.037-0.018-0.074-0.029-0.111-0.039c1.896,1.477,3.563,3.59,4.999,6.342
						c2.19,4.186,7.013,8.662,14.47,13.428c7.455,4.775,12.192,9.463,14.212,14.061c2.017,4.6,2.812,10.58,2.386,17.941
						c-0.43,7.352-8.063,15.246-22.9,23.684c-14.825,8.449-36.185,13.074-64.079,13.875h-7.534c-0.792,0.006-1.588,0.006-2.386,0
						l-23.125,0.373c-32.177-0.895-54.88-7.906-68.107-21.035c-9.051-8.902-13.576-20.664-13.576-35.285
						C70.948,198.354,76.466,179.83,87.507,160.633z"/>
				</defs>
				<clipPath id="SVGID_2_">
					<use xlink:href="#SVGID_1_"  overflow="visible"/>
				</clipPath>
				<g clip-path="url(#SVGID_2_)">
					<path fill-rule="evenodd" clip-rule="evenodd" fill="#C99444" d="M264.228,189.127c0,2.736-1.145,5.771-3.432,9.104
						c-3.287,4.75-7.974,7.387-14.063,7.906c2.979,6.289,5.305,10.854,6.977,13.688c1.68,2.84,3.01,5.91,3.99,9.213
						c0.949,3.193,1.197,6.662,0.746,10.408c-2.951-1.297-5.562-2.393-7.832-3.283c-1.777-3.99-4.426-8.254-7.945-12.795
						c-3.084-3.877-5.694-7.756-7.833-11.637c-1.449-2.643-2.531-5.031-3.244-7.16c-7.914-1.994-16.108-5.799-24.581-11.414
						c-0.238,1.531-0.635,3.941-1.193,7.238c-1.044,6.713-1.566,12.281-1.566,16.707c-0.05,0.973-0.074,1.918-0.074,2.836
						c0,1.193,0.049,2.063,0.148,2.611v8.391c-0.041,0.088-0.091,0.174-0.148,0.262l0.148,0.783v0.633
						c0.032,0.119,0.057,0.254,0.074,0.412v0.037l-0.111,0.074c0.074,1.143,0.111,2.088,0.111,2.836c0,0.039,0,0.076,0,0.111
						c-0.287,2.41-0.785,4.984-1.492,7.721c-0.282,1.164-0.629,2.432-1.043,3.805c-2.012-0.729-3.951-1.426-5.819-2.09
						c-3.825-1.338-7.181-2.482-10.07-3.432c-0.021-0.096-0.045-0.195-0.074-0.297c-1.442-4.826-2.363-8.406-2.761-10.742
						c-0.447-2.537-0.67-5.844-0.67-9.922c0-7.66,0.87-15.143,2.611-22.453c1.76-7.412,4.173-12.994,7.235-16.748
						c-2.785-0.789-5.62-1.697-8.504-2.723c-11.637-4.127-22.826-9.646-33.568-16.561c-10.542-6.813-18.998-13.924-25.363-21.334
						c-6.714-7.758-10.07-14.694-10.07-20.813c0-1.889,0.15-3.555,0.447-4.997c0.373-1.824,0.957-2.795,1.754-2.91
						c0.109-0.353,0.321-0.7,0.634-1.045c0.647-0.746,1.566-1.069,2.76-0.969h9.026c8.951,2.137,20.862,6.24,35.731,12.308
						c15.218,6.218,29.938,13.056,44.162,20.514c29.108,15.205,46.315,27.451,51.62,36.74c-0.131-0.813-0.305-1.57-0.521-2.277
						l0.148-0.148c0.895,0.996,1.742,2.76,2.537,5.297C263.854,185.447,264.228,187.488,264.228,189.127z M198.097,258.207
						c-0.358,0.766-0.769,1.574-1.231,2.424c-1.379-0.857-2.734-1.676-4.064-2.463c-0.454-0.781-0.938-1.676-1.456-2.686
						C193.299,256.277,195.549,257.184,198.097,258.207z M193.92,259.996c0.813,0.523,1.622,1.045,2.424,1.566
						c-0.125,0.209-0.249,0.422-0.373,0.635C195.395,261.885,194.711,261.152,193.92,259.996z M201.007,250.297
						c-0.249,0.809-0.523,1.641-0.82,2.5c-0.626-0.328-1.262-0.664-1.903-1.008c-3.999-2.08-7.667-3.994-11.003-5.744
						c-0.07-0.193-0.144-0.393-0.224-0.596C190.47,246.664,195.119,248.279,201.007,250.297z M199.029,256.043
						c-0.067,0.176-0.141,0.361-0.225,0.559c-3.068-1.189-5.903-2.283-8.502-3.283c-1.028-2.203-1.922-4.342-2.688-6.414
						c3.048,1.691,6.405,3.545,10.071,5.557c0.745,0.41,1.478,0.809,2.202,1.193C199.612,254.438,199.327,255.234,199.029,256.043z
						 M254.044,248.059c-0.262-0.203-0.522-0.402-0.783-0.594c0.002-0.184,0.002-0.369,0-0.561c0.383,0.324,0.77,0.648,1.156,0.969
						c-0.104,0.061-0.203,0.123-0.299,0.186H254.044z M255.574,246.83c-0.831-0.646-1.651-1.279-2.462-1.902
						c-0.033-0.275-0.07-0.549-0.112-0.82c1.052,0.648,2.122,1.309,3.208,1.977C256.005,246.352,255.793,246.6,255.574,246.83z
						 M256.916,244.965c-1.366-0.816-2.771-1.648-4.215-2.5c-0.309-1.41-0.744-2.865-1.306-4.363
						c2.137,0.982,4.398,2.014,6.789,3.096C257.903,242.637,257.479,243.893,256.916,244.965z"/>
				</g>
			</g>
			<g>
				<path fill-rule="evenodd" clip-rule="evenodd" fill="#EED37C" d="M198.135,163.691v0.074l0.746,0.148
					c0.274,0.242,0.547,0.479,0.821,0.709c0.563,0.518,1.147,1.053,1.752,1.604c-0.819,0.166-2.1,0.377-3.842,0.635
					c-3.06,0.445-10.246-0.799-21.559-3.73c-11.316-2.932-21.611-7.633-30.882-14.098c-9.257-6.472-16.146-12.563-20.664-18.277
					c-4.523-5.696-6.785-10.31-6.789-13.837c0-11.186,5.496-14.244,16.486-9.176c0.749,0.756,1.556,1.553,2.424,2.388
					c-0.074,0-0.162,0-0.261,0c-0.134-0.023-0.271-0.047-0.411-0.076c1.085,0.837,2.155,1.656,3.208,2.462
					c1.953,1.842,4.128,3.856,6.527,6.043c10.046,9.102,18.45,16.411,25.214,21.932c3.893,3.168,12.422,10.305,25.585,21.409
					C197.062,162.51,197.609,163.105,198.135,163.691z"/>
				<g>
					<path fill-rule="evenodd" clip-rule="evenodd" fill="#DBC066" d="M166.654,160.484c0.249,0.197,0.074,0.297-0.522,0.297
						c-1.492,0-2.709-1.988-3.655-5.967c-0.646-3.979-0.97-5.992-0.97-6.043c0-2.039,0.2-4.178,0.597-6.415h0.373
						c0.398,1.94,0.87,4.922,1.418,8.952C164.491,154.939,165.412,157.996,166.654,160.484z M176.352,153.77
						c1.542,3.432,3.308,7.012,5.296,10.742c-0.099,0.398-0.322,0.646-0.67,0.746c-1.144-0.547-2.364-2.189-3.656-4.924
						c-1.193-2.537-1.79-4.477-1.79-5.816c0-0.35,0.148-0.574,0.447-0.672C176.078,153.846,176.203,153.82,176.352,153.77z
						 M189.779,165.332c0.099,0.1,0.2,0.15,0.299,0.15c0.049,0.049,0.074,0.246,0.074,0.596c0,0.648-0.025,0.822-0.074,0.521
						c-0.099,0.148-0.348,0.275-0.746,0.373c-0.149-0.098-0.25-0.174-0.299-0.225c-0.05-0.049-0.075-0.273-0.075-0.67v-0.521
						c0.1,0,0.174-0.074,0.225-0.225H189.779z M133.982,125.125c-0.647,2.536-0.97,5.048-0.97,7.533c0,2.836,0.274,5.446,0.82,7.833
						c0,0.198,0,0.397,0,0.598c-0.099,0.148-0.348,0.223-0.746,0.223c-1.094,0-1.791-1.44-2.088-4.325
						c-0.101-2.936-0.15-4.428-0.15-4.477c0-7.758,2.238-12.681,6.713-14.771C135.97,119.282,134.777,121.744,133.982,125.125z
						 M132.49,109.236c0,0.1-0.199,0.149-0.597,0.149c-2.586-1.146-3.955-1.892-4.103-2.238v-0.821c0.647,0,1.492,0.273,2.537,0.821
						c1.044,0.498,1.766,1.044,2.163,1.641C132.49,108.936,132.49,109.087,132.49,109.236z M121.375,115.427
						c-1.791,2.238-2.438,4.699-1.94,7.386c-0.15,0.198-0.397,0.373-0.746,0.521c-0.647-0.944-0.971-2.485-0.971-4.624
						c0-1.94,1.393-4.004,4.178-6.193c3.033-2.386,6.066-3.231,9.102-2.535l0.148,0.298
						C126.67,111.075,123.413,112.792,121.375,115.427z M145.171,141.462c0,1.491,0.447,3.504,1.342,6.042
						c0.498,1.391,1.144,3.232,1.939,5.52c-0.049,0.199-0.223,0.373-0.521,0.521c-1.791-1.342-3.157-3.307-4.103-5.893
						c-0.697-1.988-1.045-4.051-1.045-6.19c0-2.389,0.573-4.898,1.716-7.535c1.442-3.282,3.258-4.998,5.445-5.146
						c-2.039,2.584-3.357,4.773-3.953,6.563C145.444,136.836,145.171,138.875,145.171,141.462z"/>
				</g>
			</g>
			<g>
				<path fill-rule="evenodd" clip-rule="evenodd" fill="#EED37C" d="M204.624,177.791c-0.746,11.736-1.119,20.041-1.119,24.914
					c0,4.676,0.447,10.518,1.343,17.531c0.497,4.027,1.292,9.797,2.386,17.305v3.059l-0.298,0.225
					c-1.89-2.387-3.53-6.613-4.923-12.682c0.497,4.127,0.746,7.361,0.746,9.697c0,0.648-0.049,1.193-0.148,1.641
					c0.148,0.25-0.101,0.373-0.746,0.373c-1.393,0-2.536-2.387-3.433-7.16c-0.349-2.736-0.571-4.699-0.67-5.895
					c-0.298,0.15-0.597,0.324-0.896,0.523c0.05,0.996,0.099,1.641,0.15,1.939c0.248,1.59,0.447,3.406,0.596,5.447
					c0.099,1.191,0.249,3.105,0.447,5.742l-0.746,0.447c-0.895-1.045-1.665-3.184-2.312-6.414c-0.398-2.09-0.647-3.93-0.746-5.521
					c-0.397,0.199-0.746,0.398-1.044,0.598l0.225,5.742c0.099,1.693,0.397,4.229,0.894,7.611c0,0.396-0.124,0.992-0.373,1.789
					c-0.248,0.896-0.546,1.469-0.895,1.715c-0.895-0.992-1.666-3.48-2.313-7.459c-0.447-2.785-0.696-5.246-0.746-7.385
					c-0.15,0.051-0.299,0.123-0.447,0.225c0,0.049,0,0.1,0,0.148c0.099,1.344,0.148,3.557,0.148,6.639
					c0,0.248-0.049,0.871-0.148,1.865c-0.151,0.943-0.2,1.689-0.151,2.238h-0.373c-0.05-0.248-0.398-1.965-1.045-5.148
					c-0.348-1.789-0.571-3.232-0.67-4.326c-0.2,0.1-0.373,0.199-0.523,0.299c-0.198,1.891-0.398,4.027-0.596,6.416
					c-0.896-0.695-1.617-2.537-2.164-5.52c-0.397-2.238-0.597-4.303-0.597-6.193c0-10.691,1.442-21.035,4.327-31.031
					c2.834-9.945,8.628-18.6,17.38-25.961C204.948,172.967,204.773,175.154,204.624,177.791z"/>
				<g>
					<path fill-rule="evenodd" clip-rule="evenodd" fill="#DBC066" d="M201.566,176.746c-1.791,1.74-2.736,2.609-2.836,2.609
						c-0.647,0-0.969-0.248-0.969-0.746c0-1.094,0.944-2.186,2.834-3.281c2.04-1.244,3.855-1.367,5.446-0.373
						c-0.15,0.398-0.647,0.697-1.492,0.896C203.207,176.15,202.213,176.447,201.566,176.746z M197.612,190.322
						c-1.292,0.547-2.809,1.516-4.55,2.908c-2.089,1.691-3.631,3.631-4.625,5.82l-0.298,0.074c-0.15,0-0.25,0-0.299,0
						c-0.099-0.051-0.148-0.199-0.148-0.447c0-2.09,1.342-4.402,4.027-6.939c3.482-3.281,7.659-4.498,12.533-3.654
						c-0.299,0.299-1.292,0.697-2.984,1.195C199.178,189.824,197.96,190.174,197.612,190.322z M183.29,221.131
						c0-3.432,1.766-6.838,5.296-10.219c4.327-4.178,9.771-6.119,16.337-5.82l0.074,0.225c-7.111,1.242-12.432,3.879-15.964,7.906
						c-1.89,2.141-3.604,5.471-5.147,9.996C183.488,222.621,183.29,221.928,183.29,221.131z"/>
				</g>
			</g>
			<g>
				<path fill-rule="evenodd" clip-rule="evenodd" fill="#EED37C" d="M233.27,188.383c-0.049-0.994-0.074-1.988-0.074-2.984
					c0-0.943,0.297-1.615,0.895-2.014c0.447,0.846,0.92,1.914,1.418,3.209c0.646-0.15,1.442-0.199,2.386-0.15
					c0.945,0.051,1.767,0.225,2.463,0.523c0.1-0.25,0.248-0.449,0.447-0.598c11.984,14.77,25.96,27.525,41.923,38.268
					c0,0.248-0.024,0.424-0.074,0.521c-0.099,0.148-0.349,0.225-0.746,0.225c-1.989,0-5.719-1.715-11.189-5.146
					c-0.148,0.248-0.323,0.521-0.521,0.82c0.349,0.197,0.722,0.396,1.118,0.598c7.013,4.176,10.519,6.887,10.519,8.129
					c0,0.35-0.024,0.547-0.074,0.598l0.074,0.148c-0.2,0.15-0.546,0.225-1.044,0.225c-1.542,0-5.023-1.691-10.444-5.074
					c-0.845-0.496-1.616-0.992-2.313-1.49c-0.249,0.35-0.497,0.672-0.746,0.969c5.57,3.979,9.374,7.236,11.414,9.773
					c-6.614-3.084-10.692-5.049-12.233-5.895c-0.647-0.348-1.27-0.697-1.865-1.043c-0.15,0.1-0.274,0.223-0.373,0.373
					c1.094,0.695,2.213,1.516,3.356,2.461c2.886,2.438,5.346,5.021,7.386,7.758l-0.225,0.746l-0.598,0.148
					c-2.237-1.193-5.296-3.131-9.174-5.816c-1.592-1.096-2.959-2.09-4.104-2.984c3.084,3.779,5.148,6.963,6.191,9.547
					c-13.08-9.002-21.758-17.58-26.033-25.734c-4.229-8.207-6.739-16.164-7.536-23.873c-0.049-0.049-0.099-0.072-0.148-0.072
					c0-0.051-0.049-0.1-0.148-0.15c-0.101-0.051-0.15-0.273-0.15-0.672C233.045,189.178,233.119,188.732,233.27,188.383z"/>
				<g>
					<path fill-rule="evenodd" clip-rule="evenodd" fill="#DBC066" d="M244.31,189.203c-4.425,4.027-6.789,9.699-7.088,17.008
						l-0.447,0.225c-0.099-0.199-0.298-1.068-0.595-2.611c-0.25-1.443-0.373-2.313-0.373-2.611c0-2.287,0.694-4.699,2.087-7.236
						C239.585,190.844,241.724,189.254,244.31,189.203z M248.935,196.514c0.05,0,0.075,0.102,0.075,0.299
						c-0.349,0.598-0.771,1.293-1.269,2.09c-0.945,1.59-1.642,3.057-2.089,4.398c-0.148,0.5-0.299,1.492-0.447,2.984
						c-0.149,1.293-0.224,2.314-0.224,3.061c0,1.689,0.422,4.475,1.268,8.354c0.895,4.027,1.666,6.416,2.313,7.162
						c0,0.148-0.199,0.225-0.598,0.225c-0.299,0-1.044-0.996-2.237-2.986c-1.192-2.088-1.938-3.703-2.237-4.848
						c-0.497-2.238-0.82-3.68-0.969-4.326c-0.15-0.846-0.225-2.066-0.225-3.656c0-2.885,0.273-5.047,0.82-6.49
						c0.896-2.484,2.736-4.623,5.52-6.414C248.686,196.414,248.785,196.463,248.935,196.514z M261.616,204.42
						c0.1,0.1,0.148,0.25,0.148,0.449l-1.715,2.984c-1.244,2.139-2.064,4.053-2.462,5.742c-0.447,2.041-0.722,3.582-0.82,4.625
						c-0.05,0.449-0.074,1.74-0.074,3.879c0,2.289,0.397,5.072,1.192,8.355c0.398,1.641,0.797,3.133,1.193,4.477v0.299
						c-0.099-0.051-0.173-0.076-0.225-0.076c-1.938-2.338-3.206-4.549-3.803-6.639c-0.447-1.492-0.672-3.654-0.672-6.488
						c0-3.383,0.424-6.467,1.269-9.252c1.193-3.93,3.083-6.764,5.669-8.504C261.417,204.322,261.518,204.371,261.616,204.42z"/>
				</g>
			</g>
			<g>
				<path fill-rule="evenodd" clip-rule="evenodd" fill="#D7A354" d="M127.043,65.522c0-9.149,5.123-11.587,15.367-7.311
					c7.808,3.232,16.485,9.102,26.034,17.605c8.006,6.067,23.35,16.335,46.025,30.808c15.616,9.996,28,20.515,37.15,31.555
					c9.549,11.538,14.322,22.155,14.322,31.852c0,4.328-1.243,8.182-3.73,11.563c-4.326,5.918-11.76,8.877-22.303,8.877
					c-13.577,0-28.025-7.086-43.342-21.26c-3.084-2.891-6.738-6.744-10.965-11.563c-6.457-1.168-16.429-8.104-29.913-20.812
					c-6.018-5.67-11.239-11.139-15.665-16.412c-0.958-1.149-1.815-2.207-2.575-3.17c-1.677-2.509-2.609-3.889-2.797-4.14
					c-0.459-0.704-1.03-1.638-1.715-2.797c-0.705-11.913-1.276-19.014-1.716-21.298C128.437,76.141,127.043,68.307,127.043,65.522z"
					/>
				<g>
					<defs>
						<path id="SVGID_3_" d="M127.043,65.522c0-9.149,5.123-11.587,15.367-7.311c7.808,3.232,16.485,9.102,26.034,17.605
							c8.006,6.067,23.35,16.335,46.025,30.808c15.616,9.996,28,20.515,37.15,31.555c9.549,11.538,14.322,22.155,14.322,31.852
							c0,4.328-1.243,8.182-3.73,11.563c-4.326,5.918-11.76,8.877-22.303,8.877c-13.577,0-28.025-7.086-43.342-21.26
							c-3.084-2.891-6.738-6.744-10.965-11.563c-6.457-1.168-16.429-8.104-29.913-20.812c-6.018-5.67-11.239-11.139-15.665-16.412
							c-0.958-1.149-1.815-2.207-2.575-3.17c-1.677-2.509-2.609-3.889-2.797-4.14c-0.459-0.704-1.03-1.638-1.715-2.797
							c-0.705-11.913-1.276-19.014-1.716-21.298C128.437,76.141,127.043,68.307,127.043,65.522z"/>
					</defs>
					<clipPath id="SVGID_4_">
						<use xlink:href="#SVGID_3_"  overflow="visible"/>
					</clipPath>
					<g clip-path="url(#SVGID_4_)">
						<path fill-rule="evenodd" clip-rule="evenodd" fill="#C99444" d="M139.763,88.422c3.503,7.276,7.393,16.514,11.674,27.714
							c3.754,9.839,8.206,16.441,13.353,19.806c-0.764-2.443-1.399-4.457-1.901-6.043h0.074c4.5-0.862,10.095,3.54,16.784,13.205
							c6.692,9.662,12.672,17.281,17.94,22.863c5.267,5.584,7.442,7.986,6.527,7.199c-0.916-0.795-1.376-0.248-1.38,1.641
							c0,0.641-0.074,0.891-0.223,0.746c0.246,0.248,0.046,0.373-0.597,0.373c-5.521,0-12.583-6.094-21.186-18.277
							c-0.526-0.74-1.049-1.486-1.566-2.236c-0.046,0-0.096,0-0.148,0c-2.213,0-6.862-2.326-13.951-6.977
							c0.05,0.521,0.075,1.004,0.075,1.455c0,0.396-0.05,0.572-0.149,0.523c-0.2-0.051-0.323-0.051-0.373,0
							c-1.11-1.275-2.242-2.781-3.395-4.514c-4.76-3.235-7.78-5.536-9.062-6.901c-0.031-0.032-0.056-0.068-0.076-0.111
							c-0.688-0.529-1.409-1.139-2.162-1.828c-3.532-3.581-5.745-5.818-6.64-6.713c-1.691-1.643-3.233-3.581-4.626-5.819
							c-0.295-0.49-0.556-0.962-0.782-1.418c-0.128,0.734-0.265,1.419-0.411,2.052c-2.261-3.618-3.953-6.341-5.072-8.168
							c0.746-8.989,1.119-13.59,1.119-13.801c0-8.98-0.299-16.056-0.896-21.222C133.912,79.002,136.262,81.152,139.763,88.422z"/>
					</g>
					<g clip-path="url(#SVGID_4_)">
						<path fill-rule="evenodd" clip-rule="evenodd" fill="#B6853C" d="M281.533,184.951c-1.989,1.791-6.116,3.754-12.382,5.893
							c-6.764,2.238-12.458,3.357-17.084,3.357c-11.387,0-23.349-3.182-35.881-9.549c-10.145-5.172-17.231-10.268-21.26-15.293
							c-3.35-3.607-6.458-6.977-9.325-10.105c-11.117-2.416-20.565-7.701-28.347-15.854c-7.795-8.16-12.979-13.73-15.553-16.709
							c-2.564-2.98-6.207-7.231-10.929-12.756c-7.052-8.241-10.856-13.813-11.414-16.709c6.928,6.879,16.7,16.452,29.316,28.719
							c5.272,5.321,13.279,12.16,24.02,20.514c1.589,1.242,3.045,2.387,4.365,3.432c-3.99-5.406-7.359-9.967-10.108-13.688v-0.187
							c3.678,0.337,9.732,5.495,18.164,15.478c8.424,9.98,16.194,17.314,23.312,22.006c3.127,2.078,6.882,4.156,11.264,6.229
							c11.438,5.422,22.256,8.133,32.449,8.133c2.984,0,7.262-0.672,12.832-2.014c5.619-1.393,10.193-2.09,13.726-2.09
							c0.597,0,1.068,0.125,1.417,0.373C281.012,184.629,281.483,184.902,281.533,184.951z"/>
					</g>
				</g>
			</g>
			<g>
				<g>
					<path fill-rule="evenodd" clip-rule="evenodd" fill="#C99444" d="M248.337,144.67c5.074,7.459,7.61,14.918,7.61,22.379
						c0,0.896-0.101,1.879-0.299,2.947c3.458,0.008,6.616-0.488,9.474-1.492c-0.641,1.141-2.367,2.992-5.184,5.557
						c-2.811,2.555-6.641,3.873-11.488,3.955c-4.855,0.086-8.834-3.012-11.936-9.289c-3.104-6.287-7.122-11.695-12.048-16.225
						c-3.631-3.383-9.051-8.057-16.261-14.024c-7.41-6.167-12.881-10.843-16.411-14.024c-6.316-5.819-14.647-15.243-24.99-28.272
						c-6.039-7.638-12.702-15.495-19.993-23.573c10.999,8.267,23.93,17.045,38.791,26.334c3.681,2.337,10.344,6.265,19.993,11.785
						c8.604,4.974,14.621,8.604,18.052,10.892C234.587,128.978,242.817,136.664,248.337,144.67z"/>
				</g>
				<path fill-rule="evenodd" clip-rule="evenodd" fill="#B6853C" d="M162.253,88.499c4.083,4.353,10.423,9.214,19.022,14.583
					c8.593,5.369,17.297,10.704,26.109,16.002c8.804,5.312,16.524,9.849,23.163,13.613c6.638,3.753,11.835,8.651,15.591,14.696
					c3.756,6.043,5.633,12.844,5.631,20.402c0,0.1-0.247,1.689-0.746,4.773c-0.623,1.906-1.568,3.211-2.834,3.916
					c2.014,0.141,4.152,0.254,6.416,0.336c-1.691,1.441-2.984,2.438-3.879,2.984c-1.492,0.895-4.552,1.342-9.176,1.342
					c-8.003,0.004-14.616-2.023-19.842-6.078c-5.235-4.063-9.486-7.73-12.756-11.004c-3.271-3.273-6.976-7.689-11.115-13.242
					c-4.132-5.545-9.528-13.342-16.188-23.385c-0.596-0.895-6.366-10.119-17.306-27.675c-7.013-11.241-13.427-20.489-19.247-27.751
					l0.225-0.074C151.414,76.67,157.059,82.19,162.253,88.499z"/>
			</g>
			<g>
				<g>
					<path fill-rule="evenodd" clip-rule="evenodd" fill="#F3C93C" d="M223.125,262.605v-1.043c2.187,0.697,4.624,0.646,7.31-0.15
						c5.023-1.541,11.141-1.889,18.351-1.045c7.311,0.896,13.427,2.736,18.352,5.521c5.171,2.934,8.802,4.973,10.891,6.117
						l-0.074,0.373c-0.647,1.543-1.22,4.352-1.716,8.428c-0.697,1.096-1.741,2.164-3.133,3.209c-3.531,2.488-9.5,3.879-17.903,4.178
						c-8.355,0.248-15.964-1.668-22.828-5.744c-6.464-3.828-9.944-8.006-10.443-12.533
						C222.478,268.773,222.876,266.336,223.125,262.605z"/>
				</g>
				<g>
					<path fill-rule="evenodd" clip-rule="evenodd" fill="#FCD961" d="M256.171,281.441c-8.356,0.271-15.965-1.631-22.827-5.705
						c-6.861-4.078-10.291-8.305-10.295-12.682c0-3.881,2.785-6.664,8.355-8.355c5.022-1.541,11.141-1.891,18.351-1.045
						c7.26,0.896,13.354,2.736,18.276,5.52c5.56,3.188,8.817,6.371,9.772,9.551c0.959,3.188-0.32,6.035-3.842,8.541
						C270.445,279.77,264.515,281.162,256.171,281.441z"/>
				</g>
				<g>
					<defs>
						<path id="SVGID_5_" d="M256.171,281.441c-8.356,0.271-15.965-1.631-22.827-5.705c-6.861-4.078-10.291-8.305-10.295-12.682
							c0-3.881,2.785-6.664,8.355-8.355c5.022-1.541,11.141-1.891,18.351-1.045c7.26,0.896,13.354,2.736,18.276,5.52
							c5.56,3.188,8.817,6.371,9.772,9.551c0.959,3.188-0.32,6.035-3.842,8.541C270.445,279.77,264.515,281.162,256.171,281.441z"/>
					</defs>
					<clipPath id="SVGID_6_">
						<use xlink:href="#SVGID_5_"  overflow="visible"/>
					</clipPath>
					<g clip-path="url(#SVGID_6_)">
						<path fill-rule="evenodd" clip-rule="evenodd" fill="#FFE9A1" d="M221.708,264.844c1.243-0.447,2.537-0.746,3.878-0.895
							c0.547,0,2.039,0.373,4.476,1.119c2.388,0.695,4.228,1.045,5.521,1.045c1.89,0,3.505-1.02,4.849-3.059
							c0.598-0.945,1.07-1.742,1.418-2.389c0.397-0.693,0.845-1.268,1.342-1.715c1.94-1.393,4.178-2.088,6.714-2.088
							c0.995,0,2.761,0.297,5.297,0.895c2.535,0.598,4.551,0.895,6.042,0.895c3.382,0,6.689-1.094,9.921-3.281
							c0.2-0.148,0.397-0.273,0.597-0.373c0.35,0.396,0.521,0.697,0.521,0.895c0,0.1,0,0.225,0,0.373
							c0.15-0.1,0.299-0.197,0.449-0.297c-0.1,1.641-0.348,2.857-0.746,3.654c-1.244,2.686-4.004,4.227-8.281,4.625h-5.297
							c-2.586-0.398-4.426,0.148-5.52,1.641c-0.695,0.896-1.043,2.037-1.043,3.43l0.297,2.762c0,0.945-0.496,1.99-1.492,3.133
							c-1.094,1.293-2.361,1.967-3.804,2.016h-3.952c-1.344-0.398-2.611-0.723-3.807-0.971c-2.287-0.547-4.823-0.82-7.608-0.82
							c-3.133,0-5.594,1.068-7.385,3.207l-1.193-2.611c-2.238-4.076-3.854-7.186-4.849-9.324
							C219.196,265.912,220.414,265.293,221.708,264.844z"/>
					</g>
				</g>
				<g opacity="0.5">
					<path fill-rule="evenodd" clip-rule="evenodd" fill="#E9AB35" d="M252.142,256.342c-2.59-0.443-5.835-0.432-9.734,0.035
						c-3.9,0.461-7.181,1.27-9.847,2.424c-2.672,1.156-3.877,2.561-3.618,4.215c0.24,1.529,0.862,3.221,1.865,5.074
						c-1.256-0.398-2.301-1.207-3.133-2.424c-0.929-1.373-1.116-2.865-0.56-4.477c0.621-1.842,3.52-3.432,8.691-4.773
						c5.022-1.395,10.542-1.492,16.56-0.299l0.148,0.074C252.615,256.291,252.49,256.342,252.142,256.342z"/>
				</g>
				<g>
					<path fill-rule="evenodd" clip-rule="evenodd" fill="#FFFFFF" fill-opacity="0.502" d="M273.552,265.814
						c0.497,0,0.746,0.248,0.746,0.746s-0.273,0.746-0.82,0.746c-0.348,0-0.598-0.127-0.746-0.373l-0.076-0.373
						C272.655,266.063,272.954,265.814,273.552,265.814z M275.267,268.053c0,0.348-0.198,0.521-0.596,0.521
						c-0.299,0-0.473-0.074-0.523-0.223v-0.225c0-0.35,0.199-0.521,0.598-0.521C275.093,267.605,275.267,267.754,275.267,268.053z
						 M272.134,267.605c0.2-0.102,0.447,0.023,0.746,0.373c-0.248,0.248-0.397,0.373-0.447,0.373l-0.373-0.076l-0.074-0.297
						C271.985,267.828,272.035,267.705,272.134,267.605z M247.368,256.266c0,0.398-0.174,0.598-0.522,0.598
						c-0.247,0-0.423-0.125-0.521-0.373l-0.075-0.373c0-0.35,0.199-0.521,0.597-0.521
						C247.194,255.596,247.368,255.818,247.368,256.266z M249.158,256.416c-0.448,0-0.796-0.174-1.044-0.523
						c-0.199-0.248-0.299-0.447-0.299-0.596c0-0.496,0.299-0.746,0.895-0.746c0.598,0,0.971,0.348,1.119,1.045
						C249.829,256.141,249.606,256.416,249.158,256.416z M226.109,261.264c-0.449,0.35-1.045,0.521-1.791,0.521
						c-1.692,0-2.537-0.473-2.537-1.418c0-1.141,0.82-1.689,2.462-1.639c1.641,0.049,2.461,0.547,2.461,1.49
						C226.705,260.617,226.506,260.965,226.109,261.264z M226.332,262.158c0.597,0,0.92,0.35,0.97,1.045
						c0,0.248-0.149,0.521-0.447,0.82c-0.299,0.25-0.622,0.373-0.97,0.373c-0.647,0-0.971-0.299-0.971-0.895
						C224.914,262.605,225.387,262.158,226.332,262.158z M242.37,275.586c0-0.496,0.225-0.746,0.672-0.746
						c0.447,0.051,0.672,0.25,0.672,0.598c0,0.049-0.074,0.174-0.225,0.373c-0.199,0.199-0.398,0.299-0.596,0.299
						C242.545,276.109,242.37,275.936,242.37,275.586z"/>
				</g>
				<g opacity="0.5">
					<path fill-rule="evenodd" clip-rule="evenodd" fill="#E9AB35" d="M258.259,278.348c-3.481,0.1-6.191-0.176-8.131-0.822
						c10.494,0.1,17.58-1.092,21.261-3.58c0.945-0.646,1.665-1.393,2.163-2.238c0.05,1.293-0.447,2.363-1.492,3.207
						c-1.094,0.846-2.811,1.617-5.146,2.314C264.575,277.875,261.69,278.248,258.259,278.348z"/>
				</g>
			</g>
			<g>
				<defs>
					<path id="SVGID_7_" d="M162.253,88.499c4.083,4.353,10.423,9.214,19.022,14.583c8.593,5.369,17.297,10.704,26.109,16.002
						c8.804,5.312,16.524,9.849,23.163,13.613c6.638,3.753,11.835,8.651,15.591,14.696c3.756,6.043,5.633,12.844,5.631,20.402
						c0,0.1-0.247,1.689-0.746,4.773c-0.623,1.906-1.568,3.211-2.834,3.916c2.014,0.141,4.152,0.254,6.416,0.336
						c-1.691,1.441-2.984,2.438-3.879,2.984c-1.492,0.895-4.552,1.342-9.176,1.342c-8.003,0.004-14.616-2.023-19.842-6.078
						c-5.235-4.063-9.486-7.73-12.756-11.004c-3.271-3.273-6.976-7.689-11.115-13.242c-4.132-5.545-9.528-13.342-16.188-23.385
						c-0.596-0.895-6.366-10.119-17.306-27.675c-7.013-11.241-13.427-20.489-19.247-27.751l0.225-0.074
						C151.414,76.67,157.059,82.19,162.253,88.499z"/>
				</defs>
				<clipPath id="SVGID_8_">
					<use xlink:href="#SVGID_7_"  overflow="visible"/>
				</clipPath>
				<g clip-path="url(#SVGID_8_)">
					<g>
						<path fill-rule="evenodd" clip-rule="evenodd" fill="#F3C93C" d="M237.298,160.484c-2.237,2.885-5.595,4.525-10.07,4.924
							c-4.426,0.396-7.708-0.92-9.848-3.955c-2.238-2.984-3.357-5.969-3.357-8.951c-0.049-2.984,1.218-5.57,3.804-7.76
							c2.537-2.287,5.546-3.554,9.027-3.803c3.432-0.199,6.366,0.672,8.802,2.61c2.487,1.99,3.954,4.578,4.401,7.76
							C240.456,154.49,239.536,157.551,237.298,160.484z"/>
						<g opacity="0.5">
							<path fill-rule="evenodd" clip-rule="evenodd" fill="#E9AB35" d="M236.104,158.32c0.548-1.193,0.821-2.311,0.821-3.357
								c0-4.873-2.362-8.256-7.086-10.145c-0.382-0.16-0.755-0.297-1.12-0.41c2.492-0.553,4.68,0.381,6.564,2.797
								c1.79,2.287,2.685,4.477,2.685,6.564c0,0.748-0.271,1.74-0.82,2.984c-0.375,0.809-0.748,1.381-1.118,1.715
								C236.061,158.414,236.084,158.363,236.104,158.32z"/>
						</g>
					</g>
					<g>
						<path fill-rule="evenodd" clip-rule="evenodd" fill="#F3C93C" d="M208.951,143.998c-2.399,3.107-5.956,4.848-10.668,5.221
							c-4.723,0.381-8.242-1.012-10.556-4.176c-2.302-3.166-3.47-6.323-3.505-9.474c-0.044-3.16,1.3-5.946,4.028-8.356
							c2.726-2.4,5.91-3.717,9.548-3.953c3.648-0.241,6.794,0.679,9.437,2.761c2.643,2.081,4.185,4.816,4.625,8.205
							C212.313,137.622,211.342,140.879,208.951,143.998z"/>
						<g>
							<defs>
								<path id="SVGID_9_" d="M208.951,143.998c-2.399,3.107-5.956,4.848-10.668,5.221c-4.723,0.381-8.242-1.012-10.556-4.176
									c-2.302-3.166-3.47-6.323-3.505-9.474c-0.044-3.16,1.3-5.946,4.028-8.356c2.726-2.4,5.91-3.717,9.548-3.953
									c3.648-0.241,6.794,0.679,9.437,2.761c2.643,2.081,4.185,4.816,4.625,8.205
									C212.313,137.622,211.342,140.879,208.951,143.998z"/>
							</defs>
							<clipPath id="SVGID_10_">
								<use xlink:href="#SVGID_9_"  overflow="visible"/>
							</clipPath>
							<g opacity="0.5" clip-path="url(#SVGID_10_)">
								<path fill-rule="evenodd" clip-rule="evenodd" fill="#FFE9A1" d="M204.699,126.542c4.376,0,7.857,1.416,10.443,4.251
									c0.214,0.236,0.412,0.475,0.597,0.709c-0.306,1.792-0.504,3.197-0.597,4.215c-0.064,0.552-0.176,1.212-0.335,1.977
									c-0.252-0.312-0.513-0.623-0.784-0.932c-2.188-2.337-4.599-3.506-7.235-3.506c-2.337,0-4.625,0.621-6.863,1.865
									c-2.288,1.192-4.451,1.789-6.489,1.789c-2.935,0-5.296-1.093-7.087-3.282c-1.741-2.188-2.984-3.281-3.73-3.281
									c-0.158,0-0.319,0.013-0.485,0.036c0.76-0.999,1.543-2.029,2.35-3.095c3.431-4.129,6.117-6.963,8.058-8.505
									c0.035-0.027,0.071-0.053,0.11-0.073c-0.01,0.113-0.023,0.238-0.036,0.373c-0.05,0.496-0.125,1.192-0.225,2.087
									c0,1.045,0.398,2.164,1.193,3.357c1.293,1.938,3.208,2.909,5.745,2.909c0.696,0,1.517-0.148,2.46-0.446
									C202.685,126.691,203.654,126.542,204.699,126.542z"/>
							</g>
						</g>
						<g opacity="0.5">
							<path fill-rule="evenodd" clip-rule="evenodd" fill="#E9AB35" d="M204.624,128.482c-0.042-0.576-0.079-1.135-0.112-1.679
								c0.59,0.284,1.149,0.62,1.678,1.007c1.541,1.162,2.547,2.643,3.022,4.438c0.22,0.833,0.332,1.689,0.335,2.574v0.187
								c-0.048,0.146-0.147,0.406-0.298,0.782c-0.149,0.499-0.273,0.772-0.373,0.822c0-0.647-0.1-1.332-0.298-2.052
								c-0.204-0.732-0.514-1.504-0.932-2.313c-0.104-0.214-0.217-0.423-0.337-0.634c-0.69-1.226-1.523-2.208-2.499-2.946
								C204.745,128.609,204.682,128.545,204.624,128.482z M203.132,127.4c-0.084-0.416-0.172-0.825-0.261-1.23
								c0.426,0.125,0.835,0.276,1.231,0.448c0.047,0.509,0.096,1.032,0.149,1.565C203.883,127.892,203.51,127.629,203.132,127.4z
								 M198.544,125.721c0.197,0.197,0.397,0.396,0.598,0.597c-4.57,0.053-7.543,1.842-8.915,5.37
								c-0.463,1.208-0.712,3.061-0.746,5.56c-0.037,0.759-0.05,1.581-0.037,2.46c-0.423,0.065-0.821,0.128-1.194,0.187
								c-0.071-0.306-0.132-0.655-0.187-1.043c-0.15-1.841-0.224-2.785-0.224-2.835c0-3.133,1.119-5.645,3.357-7.534
								C193.193,126.779,195.642,125.858,198.544,125.721z M200.782,126.466c-0.229-0.253-0.453-0.501-0.671-0.745
								c0.469,0.032,0.929,0.081,1.381,0.15c0.067,0.278,0.128,0.565,0.187,0.858C201.38,126.622,201.081,126.534,200.782,126.466z"
								/>
						</g>
					</g>
					<g>
						<path fill-rule="evenodd" clip-rule="evenodd" fill="#FCD961" d="M222.602,155.336c0.498,3.68-0.571,7.236-3.207,10.668
							c-2.586,3.383-6.491,5.297-11.713,5.744c-5.172,0.447-9.001-1.068-11.488-4.551c-2.586-3.482-3.878-6.963-3.878-10.443
							c-0.049-3.482,1.417-6.516,4.401-9.102c2.984-2.635,6.489-4.104,10.518-4.4c3.979-0.248,7.41,0.771,10.295,3.059
							C220.414,148.598,222.105,151.607,222.602,155.336z"/>
						<g>
							<defs>
								<path id="SVGID_11_" d="M222.602,155.336c0.498,3.68-0.571,7.236-3.207,10.668c-2.586,3.383-6.491,5.297-11.713,5.744
									c-5.172,0.447-9.001-1.068-11.488-4.551c-2.586-3.482-3.878-6.963-3.878-10.443c-0.049-3.482,1.417-6.516,4.401-9.102
									c2.984-2.635,6.489-4.104,10.518-4.4c3.979-0.248,7.41,0.771,10.295,3.059C220.414,148.598,222.105,151.607,222.602,155.336
									z"/>
							</defs>
							<clipPath id="SVGID_12_">
								<use xlink:href="#SVGID_11_"  overflow="visible"/>
							</clipPath>
							<g clip-path="url(#SVGID_12_)">
								<path fill-rule="evenodd" clip-rule="evenodd" fill="#FFE9A1" d="M225.064,150.449c0.191,1.498,0.342,2.74,0.447,3.73
									c-1.059-0.373-2.201-0.559-3.431-0.559c-1.344,0-3.258,0.596-5.745,1.791c-2.486,1.191-4.874,1.789-7.161,1.789
									c-1.492,0-5.271-1.516-11.338-4.551c-3.078-1.555-5.814-2.115-8.206-1.678c0.922-1.902,2.178-4.152,3.767-6.752
									c3.092,0.143,5.74,1.412,7.945,3.805c2.337,2.537,4.898,3.805,7.684,3.805c1.542,0,3.133-0.396,4.775-1.193
									c1.641-0.795,4.55-1.193,8.727-1.193C223.033,149.443,223.879,149.779,225.064,150.449z"/>
							</g>
						</g>
						<g opacity="0.5">
							<path fill-rule="evenodd" clip-rule="evenodd" fill="#E9AB35" d="M220.402,155.373c0.351,1.891,0.19,3.221-0.485,3.992
								c-0.105-0.777-0.303-1.947-0.598-3.508c-0.416-2.268-0.874-3.785-1.38-4.549C219.22,152.066,220.041,153.422,220.402,155.373
								z M207.943,146.348c-0.537,0.133-1.121,0.318-1.752,0.559c-3.68,1.344-6.266,3.135-7.758,5.371
								c-0.944,1.443-1.542,3.232-1.789,5.371c-0.041,0.254-0.079,0.529-0.112,0.82c-0.074-0.568-0.112-1.113-0.112-1.641
								c0-2.535,0.82-4.924,2.462-7.16C201.014,146.727,204.036,145.621,207.943,146.348z"/>
						</g>
					</g>
					<g>
						<path fill-rule="evenodd" clip-rule="evenodd" fill="#FCD961" d="M243.862,161.305c2.635,3.58,3.705,7.883,3.207,12.904
							c-0.498,4.975-3.158,9.15-7.982,12.533c-4.772,3.432-9.423,4.027-13.948,1.791c-4.625-2.189-7.982-5.074-10.071-8.654
							c-2.139-3.58-2.512-7.559-1.119-11.936c1.292-4.426,3.854-7.908,7.685-10.443c3.73-2.537,7.658-3.406,11.785-2.609
							C237.646,155.586,241.128,157.723,243.862,161.305z"/>
						<g>
							<defs>
								<path id="SVGID_13_" d="M243.862,161.305c2.635,3.58,3.705,7.883,3.207,12.904c-0.498,4.975-3.158,9.15-7.982,12.533
									c-4.772,3.432-9.423,4.027-13.948,1.791c-4.625-2.189-7.982-5.074-10.071-8.654c-2.139-3.58-2.512-7.559-1.119-11.936
									c1.292-4.426,3.854-7.908,7.685-10.443c3.73-2.537,7.658-3.406,11.785-2.609
									C237.646,155.586,241.128,157.723,243.862,161.305z"/>
							</defs>
							<clipPath id="SVGID_14_">
								<use xlink:href="#SVGID_13_"  overflow="visible"/>
							</clipPath>
							<g clip-path="url(#SVGID_14_)">
								<path fill-rule="evenodd" clip-rule="evenodd" fill="#FFE9A1" d="M226.109,160.408c2.982-1.541,5.221-2.313,6.713-2.313
									c4.276,0,6.838,2.637,7.683,7.908c0.447,2.885,0.82,4.676,1.119,5.371c0.746,1.641,2.016,2.461,3.805,2.461
									c1.79,0,3.581-0.869,5.371-2.611v4.553c-0.121,0.139-0.244,0.289-0.373,0.447c-0.84,1.016-1.697,1.848-2.574,2.498
									c-1.521,1.02-2.926,1.529-4.213,1.529c-2.586,0-4.328-0.795-5.223-2.389c-0.548-0.943-0.921-2.709-1.119-5.295
									c-0.249-2.586-0.696-4.377-1.343-5.371c-1.045-1.59-2.959-2.387-5.743-2.387c-2.687,0-4.95,0.672-6.79,2.014
									c-0.845,0.598-2.262,2.064-4.251,4.4c-2.946,3.432-6.675,5.471-11.189,6.117c0.296-1.367,0.519-2.486,0.671-3.355
									c0.714-4.461,2.193-8.764,4.438-12.906c0.249,0.008,0.535,0.045,0.858,0.111c1.61,0.971,3.475,1.455,5.595,1.455
									C220.937,162.646,223.125,161.9,226.109,160.408z M213.949,172.121v0.148c-0.148,0.051-0.348,0.199-0.597,0.447
									C213.999,172.32,214.198,172.121,213.949,172.121z"/>
							</g>
						</g>
						<g opacity="0.5">
							<path fill-rule="evenodd" clip-rule="evenodd" fill="#E9AB35" d="M236.626,161.453c4.675,1.441,7.014,4.75,7.014,9.922
								c0,2.188-0.324,3.904-0.971,5.148c-0.1-0.135-0.162-0.422-0.188-0.859c0.324-1.189,0.486-2.422,0.486-3.693
								c0-3.295-1.432-6.189-4.29-8.689C238.065,162.658,237.382,162.049,236.626,161.453z M216.858,176.969
								c-0.746-1.441-1.119-3.133-1.119-5.072c0-1.988,0.472-3.828,1.417-5.52c0.944-1.691,2.834-3.258,5.669-4.699
								c-1.84,1.441-3.233,2.959-4.177,4.549c-0.449,0.648-0.822,1.518-1.119,2.611c-0.298,1.193-0.449,2.686-0.449,4.477
								c0,1.244,0.101,2.262,0.299,3.059c0.15,0.695,0.498,1.615,1.044,2.76c0.099,0.248,0.2,0.521,0.299,0.82
								C218.175,179.408,217.555,178.41,216.858,176.969z"/>
						</g>
					</g>
					<g>
						<path fill-rule="evenodd" clip-rule="evenodd" fill="#F3C93C" d="M165.76,126.618c-1.791-2.389-2.685-4.775-2.685-7.161
							c-0.051-2.389,0.944-4.453,2.983-6.193c2.039-1.79,4.452-2.785,7.235-2.983c2.735-0.148,5.073,0.548,7.013,2.089
							c1.939,1.542,3.083,3.58,3.431,6.117c0.348,2.536-0.373,4.974-2.164,7.311c-1.791,2.287-4.451,3.604-7.981,3.953
							C170.061,130.047,167.45,129.003,165.76,126.618z"/>
						<g>
							<defs>
								<path id="SVGID_15_" d="M165.76,126.618c-1.791-2.389-2.685-4.775-2.685-7.161c-0.051-2.389,0.944-4.453,2.983-6.193
									c2.039-1.79,4.452-2.785,7.235-2.983c2.735-0.148,5.073,0.548,7.013,2.089c1.939,1.542,3.083,3.58,3.431,6.117
									c0.348,2.536-0.373,4.974-2.164,7.311c-1.791,2.287-4.451,3.604-7.981,3.953C170.061,130.047,167.45,129.003,165.76,126.618
									z"/>
							</defs>
							<clipPath id="SVGID_16_">
								<use xlink:href="#SVGID_15_"  overflow="visible"/>
							</clipPath>
							<g opacity="0.5" clip-path="url(#SVGID_16_)">
								<path fill-rule="evenodd" clip-rule="evenodd" fill="#FFE9A1" d="M164.566,108.266c1.441-0.257,2.746-0.281,3.916-0.075
									c1.06,0.427,2.587,1.422,4.587,2.983c2.736,2.089,6.118,3.134,10.146,3.134c1.243,0,2.86-0.41,4.848-1.23
									c0.101,0.372,0.2,0.758,0.297,1.156c-3.129,2.629-6.387,4.17-9.772,4.625c-0.524,0.05-1.047,0.074-1.566,0.074
									c-0.622,0-1.22-0.037-1.791-0.112c-1.087-0.271-2.454-0.88-4.103-1.827c-2.387-1.393-4.625-2.089-6.714-2.089
									c-0.765,0-1.498,0.063-2.2,0.187c-0.179,0.017-0.341,0.043-0.485,0.075c0.444-2.325,0.779-4.277,1.006-5.857l0.038-0.036
									c0.447-0.404,0.895-0.69,1.342-0.858C164.262,108.346,164.41,108.296,164.566,108.266z"/>
							</g>
						</g>
						<g opacity="0.5">
							<path fill-rule="evenodd" clip-rule="evenodd" fill="#E9AB35" d="M167.474,115.8c1.493-2.039,3.781-3.059,6.864-3.059
								c1.228,0,2.134,0.198,2.723,0.597c-1.231-0.311-2.586-0.21-4.066,0.298c-3.765,1.271-5.879,4.104-6.341,8.505
								c-0.067-0.18-0.141-0.377-0.223-0.598c-0.299-0.694-0.449-1.119-0.449-1.268C165.982,118.684,166.481,117.192,167.474,115.8z
								"/>
						</g>
					</g>
					<g>
						<path fill-rule="evenodd" clip-rule="evenodd" fill="#FFFFFF" fill-opacity="0.502" d="M229.018,143.924
							c-0.248,0.348-0.522,0.521-0.821,0.521c-0.546,0-0.895-0.248-1.044-0.746l-0.074-0.746c0-0.995,0.372-1.491,1.118-1.491
							s1.12,0.496,1.12,1.491C229.316,143.301,229.217,143.625,229.018,143.924z M230.882,144.369c0-0.744,0.323-1.217,0.97-1.416
							c0.598-0.15,0.895,0.199,0.895,1.044c0,0.498-0.373,0.871-1.118,1.117c-0.247-0.049-0.423-0.098-0.521-0.148
							C230.957,144.869,230.882,144.67,230.882,144.369z M228.942,158.619c-0.397,0.496-0.919,0.746-1.566,0.746
							c-0.745,0-1.292-0.322-1.64-0.971l-0.299-0.969c0-1.344,0.672-2.014,2.013-2.014c1.294,0,1.94,0.67,1.94,2.014
							C229.391,157.824,229.241,158.221,228.942,158.619z M223.945,161.08c0-0.846,0.496-1.242,1.492-1.193
							c0.993,0.051,1.491,0.598,1.491,1.641c0,0.945-0.447,1.418-1.343,1.418c-0.596,0-1.045-0.299-1.342-0.895
							C224.045,161.703,223.945,161.379,223.945,161.08z M239.909,170.33c-0.051-0.348-0.076-0.549-0.076-0.598
							c0-0.895,0.549-1.393,1.643-1.492c1.045-0.098,1.566,0.275,1.566,1.119c0,0.4-0.2,0.773-0.598,1.119
							c-0.398,0.299-0.846,0.449-1.342,0.449C240.456,170.928,240.058,170.729,239.909,170.33z M236.029,171.822
							c-0.05-0.051-0.148-0.125-0.299-0.225c-0.05,0.049-0.074-0.174-0.074-0.67c0-0.795,0.373-1.168,1.118-1.119
							c0.746,0.049,1.119,0.346,1.119,0.895c0,0.299-0.173,0.57-0.521,0.82c-0.348,0.248-0.621,0.373-0.82,0.373
							C236.254,171.896,236.078,171.871,236.029,171.822z M193.882,126.542v-0.971c0-1.244,0.373-1.814,1.119-1.716
							c0.746,0.149,1.119,0.845,1.119,2.089c0,1.046-0.373,1.567-1.119,1.567C194.405,127.512,194.032,127.189,193.882,126.542z
							 M208.055,125.872c0.746,0,1.119,0.446,1.119,1.341c0,0.946-0.324,1.418-0.969,1.418c-0.647,0-1.045-0.223-1.195-0.672
							c-0.05-0.446-0.074-0.696-0.074-0.746C206.937,126.269,207.309,125.82,208.055,125.872z M177.098,112.444
							c0.2-0.25,0.622-0.274,1.269-0.075l0.074,0.373v1.343c0.049,0.249-0.175,0.373-0.672,0.373c-0.497,0-0.746-0.423-0.746-1.268
							C177.023,112.792,177.048,112.542,177.098,112.444z M182.246,115.502c0,0.746-0.423,1.118-1.268,1.118
							c-0.499,0-0.847-0.175-1.045-0.521c-0.099-0.199-0.15-0.398-0.15-0.597c0-0.746,0.424-1.218,1.269-1.418
							C181.848,113.935,182.246,114.408,182.246,115.502z M209.398,131.315c-0.298-0.049-0.498-0.099-0.597-0.148
							c-0.149-0.099-0.223-0.298-0.223-0.597c0-0.298,0.074-0.546,0.223-0.746c0.299-0.396,0.771-0.473,1.418-0.223l0.148,0.148
							c0.051,0.051,0.076,0.225,0.076,0.522S210.095,130.919,209.398,131.315z M214.695,146.533l-0.895,0.15l-0.597-0.15
							c-0.099-0.049-0.149-0.248-0.149-0.596c0-0.35,0.124-0.598,0.373-0.746c0.297-0.148,0.721-0.049,1.268,0.297l0.074,0.373
							L214.695,146.533z M218.723,146.684c0,0.396-0.2,0.795-0.597,1.193c-0.447,0.447-1.02,0.672-1.715,0.672
							c-0.548,0-0.921-0.248-1.119-0.746c-0.101-0.498-0.15-0.771-0.15-0.822c0-0.994,0.597-1.615,1.791-1.865
							C218.126,144.818,218.723,145.34,218.723,146.684z M200.746,149.07c-0.101-0.646-0.15-0.994-0.15-1.045
							c0-1.492,0.573-2.236,1.716-2.236c1.144,0,1.715,0.721,1.715,2.162c0,0.447-0.099,0.871-0.297,1.268
							c-0.299,0.598-0.771,0.896-1.418,0.896C201.517,150.115,200.994,149.766,200.746,149.07z M212.756,153.023l-0.896-0.148
							c-0.099,0.051-0.149-0.174-0.149-0.672c0-0.299,0.173-0.521,0.521-0.672c0.349-0.197,0.746-0.223,1.195-0.074l0.223,0.672
							l-0.149,0.746L212.756,153.023z M217.977,163.318c-0.696,0-1.168-0.473-1.417-1.418c-0.148-0.943-0.224-1.441-0.224-1.492
							c0-1.59,0.696-2.387,2.089-2.387c1.393,0,2.09,0.672,2.09,2.014c0,0.449-0.2,1.045-0.597,1.791
							C219.37,162.82,218.723,163.318,217.977,163.318z"/>
					</g>
				</g>
			</g>
			<g>
				<path fill-rule="evenodd" clip-rule="evenodd" fill="#B6853C" d="M138.009,54.407c0.696,0.448,1.044,1.119,1.044,2.016
					l-0.074,1.341l-0.299,0.15c-0.546-0.845-0.82-1.791-0.82-2.835l0.074-0.597L138.009,54.407z M140.918,57.017
					c0,0.746-0.049,1.27-0.148,1.567l-0.447,0.075c-0.15-0.299-0.225-0.871-0.225-1.716s0.173-1.418,0.521-1.717
					C140.819,55.526,140.918,56.123,140.918,57.017z M135.324,67.611c0.15-0.298,0.298-0.472,0.447-0.522
					c0.15-0.099,0.474-0.074,0.97,0.074l0.148,0.97c0.15,0.198-0.025,0.3-0.521,0.3C135.872,68.034,135.523,67.759,135.324,67.611z
					 M138.68,72.011c0,0.249-0.248,0.373-0.746,0.373c-0.298-0.1-0.646-0.149-1.044-0.149c-0.148-0.099-0.223-0.396-0.223-0.895
					c0-0.248,0.173-0.472,0.521-0.671c0.348-0.2,0.795-0.15,1.343,0.148L138.68,72.011z M138.532,76.19
					c-0.2,0.05-0.299-0.175-0.299-0.672c0-0.746,0.324-1.044,0.97-0.896c0.447,0.149,0.671,0.449,0.671,0.896l-0.224,0.521
					L138.532,76.19z M99.891,141.163c0,0.05,0,0.1,0,0.149h0.224c0.099,0.349,0.373,0.847,0.82,1.491
					c-0.746-0.496-1.119-0.895-1.119-1.192C99.816,141.312,99.841,141.163,99.891,141.163z M97.205,146.234
					c0.845,1.195,1.292,2.09,1.343,2.688c-0.051,0.197-0.101,0.346-0.15,0.447c-0.099,0.148-0.298,0.223-0.596,0.223
					c-0.548,0-1.195-0.67-1.94-2.014c-0.596-1.094-0.944-1.963-1.043-2.611l0.149-0.746l0.074-0.072
					C95.589,144.396,96.311,145.092,97.205,146.234z M93.028,150.488c-0.746-1.691-1.119-2.785-1.119-3.283
					c0-1.59,0.497-1.59,1.492,0c0.795,1.293,1.641,3.158,2.537,5.594c-0.051,0.15-0.076,0.301-0.076,0.449
					c-0.05,0.1-0.223,0.148-0.522,0.148C94.644,153.396,93.873,152.426,93.028,150.488z M99.816,190.246
					c-0.099,0.15-0.298,0.25-0.597,0.301c-0.199-0.201-0.298-0.598-0.298-1.195l0.671-0.072l0.224,0.072
					c0.05,0,0.075,0.148,0.075,0.449C99.891,190.297,99.866,190.447,99.816,190.246z M94.295,185.697
					c0.398,0.547,0.597,0.869,0.597,0.971c0,0.496-0.024,0.746-0.074,0.746c-0.051,0.148-0.2,0.271-0.449,0.373
					c-0.198-0.053-0.497-0.35-0.895-0.896c-0.348-0.496-0.521-0.846-0.521-1.043c0-0.35,0.148-0.723,0.447-1.119
					C93.599,184.826,93.898,185.15,94.295,185.697z M91.835,187.787c-0.449,0-0.872-0.426-1.269-1.27
					c-0.299-0.646-0.447-1.094-0.447-1.342c0.597,0.049,1.119,0.373,1.566,0.969c0.2,0.299,0.472,0.695,0.82,1.193
					c0,0.15-0.025,0.248-0.074,0.299C92.332,187.734,92.132,187.787,91.835,187.787z M70.126,223.967
					c1.144-0.6,2.04-0.822,2.687-0.672v0.744c-0.397,0-1.02,0.275-1.865,0.822c-0.797,0.496-1.568,0.746-2.314,0.746
					c-0.099,0.248-0.149,0.123-0.149-0.373C68.485,224.885,69.031,224.463,70.126,223.967z M66.099,229.037
					c0-0.496,1.144-1.416,3.431-2.76c2.238-1.344,3.755-2.014,4.55-2.014l0.148,0.076c0.051,0.049,0.076,0.221,0.076,0.521
					c-3.482,2.885-6.093,4.449-7.833,4.699C66.223,229.709,66.099,229.535,66.099,229.037z M93.997,257.609
					c-0.845,0.348-1.416,0.619-1.714,0.818c-0.299-0.098-0.472-0.172-0.523-0.221c-0.099-0.1-0.148-0.324-0.148-0.674
					c0-0.445,0.472-0.846,1.417-1.191c0.746-0.25,1.317-0.373,1.715-0.373l0.15-0.076c0.099,0.049,0.149,0.225,0.149,0.523
					C95.042,256.863,94.693,257.26,93.997,257.609z M96.533,257.758c0.049,0,0.074,0.148,0.074,0.449
					c0,0.496-0.746,1.092-2.238,1.789c-0.297,0-0.472-0.023-0.521-0.076v-0.074c-0.2,0.15-0.299-0.023-0.299-0.521
					c0-0.447,0.349-0.871,1.045-1.27c0.647-0.348,1.218-0.471,1.716-0.373L96.533,257.758z M248.188,132.061
					c-0.199,0.3-0.572,0.696-1.119,1.195c-0.597,0.546-1.02,0.846-1.269,0.896c-0.148,0.148-0.223-0.025-0.223-0.523
					c0-0.398,0.349-0.795,1.044-1.194C247.269,132.087,247.791,131.962,248.188,132.061z M249.308,133.405
					c0.05,0,0.074,0.149,0.074,0.447c0,0.199-0.299,0.523-0.895,0.971c-0.646,0.497-1.17,0.746-1.567,0.746
					c-0.247,0.299-0.373,0.2-0.373-0.299c0-0.498,0.299-0.845,0.896-1.045c0.945-0.298,1.542-0.547,1.791-0.746L249.308,133.405z
					 M261.765,164.885c0-0.199,0.051-0.447,0.15-0.746c0.398-0.1,1.268-0.1,2.611,0c0,0.049,0.049,0.098,0.148,0.15
					c0.049,0,0.074,0.148,0.074,0.447c0,0.596-0.497,0.895-1.492,0.895l-1.268-0.074c-0.099-0.1-0.174-0.148-0.225-0.148
					C261.765,165.355,261.765,165.184,261.765,164.885z M259.453,181.445c-0.299-0.299-0.473-0.473-0.522-0.523
					c0.349-0.496,0.746-0.695,1.193-0.596c0.447,0.049,0.871,0.373,1.268,0.969c-0.148,0.449-0.447,0.672-0.895,0.672
					C260.199,181.967,259.851,181.793,259.453,181.445z M256.171,182.564c0.298-0.199,0.77-0.248,1.417-0.15
					c0,0.15,0.05,0.621,0.148,1.418c0.052,0.199-0.173,0.299-0.67,0.299c-0.299,0-0.548-0.248-0.746-0.746
					C256.22,183.086,256.171,182.814,256.171,182.564z M228.346,235.828c-0.1-0.051-0.174-0.1-0.224-0.152
					c-0.05-0.049-0.074-0.221-0.074-0.521c0-0.744,0.397-1.242,1.193-1.49c0.099,0.098,0.199,0.123,0.298,0.074
					c0,0.049,0,0.223,0,0.521C229.539,234.658,229.143,235.18,228.346,235.828z M230.659,237.02c-0.099-0.1-0.15-0.322-0.15-0.67
					c0-0.35,0.274-0.598,0.821-0.746c0.447-0.1,0.92-0.125,1.416-0.076l0.15,0.449c-1.144,0.746-1.766,1.143-1.865,1.191
					L230.659,237.02z M232.299,239.258c-0.646-0.447-0.969-0.721-0.969-0.82c0-0.547,0.322-1.096,0.969-1.643
					c0.746-0.746,1.542-0.77,2.389-0.072l0.223,0.445c-0.198,0.35-0.596,0.746-1.193,1.193
					C233.171,238.811,232.697,239.107,232.299,239.258z M156.136,211.285c0,0.248-0.074,0.621-0.224,1.117
					c-0.198,0.547-0.423,0.895-0.67,1.045c-0.397-0.049-0.647-0.074-0.746-0.074c-0.101-0.051-0.15-0.25-0.15-0.598
					c0-0.199,0.125-0.547,0.373-1.045c0.249-0.646,0.499-1.043,0.746-1.191c0.15,0.049,0.323,0.098,0.523,0.148
					C156.087,210.787,156.136,210.984,156.136,211.285z M151.959,213.746l-0.225,0.148c-0.198-0.248-0.348-0.646-0.447-1.193
					l-0.224-1.268c0.548,0.148,0.871,0.348,0.97,0.598c0.05,0.049,0.074,0.297,0.074,0.744
					C152.108,213.273,152.059,213.596,151.959,213.746z M108.021,243.436l-0.074,0.971c-0.697,0.297-1.168,0.447-1.418,0.447
					c-0.298-0.299-0.447-0.623-0.447-0.971c0-0.049,0.198-0.322,0.596-0.82c0.397-0.447,0.646-0.697,0.746-0.746
					C107.822,242.465,108.021,242.838,108.021,243.436z M103.397,240.227c-0.348-0.148-0.548-0.297-0.597-0.447
					c0.546-0.545,1.119-0.969,1.716-1.268c0.248,0.148,0.447,0.447,0.596,0.895l-0.223,0.746c-0.101,0.15-0.398,0.225-0.896,0.225
					L103.397,240.227z"/>
			</g>
			<g>
				<path fill-rule="evenodd" clip-rule="evenodd" fill="#DBC066" d="M255.126,201.139c0,0.396-0.349,0.746-1.043,1.045
					c-0.102,0-0.176,0-0.225,0c-0.05-0.051-0.074-0.15-0.074-0.299c0-0.35,0.323-0.695,0.969-1.045
					c0.1,0.051,0.199,0.076,0.299,0.076C255.101,200.916,255.126,200.988,255.126,201.139z M256.916,202.332
					c0,0.299-0.571,0.771-1.715,1.418c-0.249-0.1-0.372-0.273-0.372-0.523c0-0.199,0.271-0.447,0.819-0.746
					c0.397-0.297,0.722-0.473,0.97-0.521C256.817,202.059,256.916,202.184,256.916,202.332z M253.485,199.721l-0.746,0.674
					c-0.1,0.098-0.148,0.021-0.148-0.225l0.67-0.598L253.485,199.721z M240.132,209.494c0,0.246-0.447,0.82-1.342,1.715
					l-0.076-0.447c0-0.1,0.15-0.348,0.449-0.746c0.297-0.496,0.521-0.77,0.67-0.82c0.052,0.051,0.126,0.074,0.225,0.074
					C240.107,209.27,240.132,209.346,240.132,209.494z M239.46,208.523c-0.645,0.844-1.068,1.27-1.268,1.27
					c-0.099,0-0.199-0.025-0.299-0.076c-0.049,0.1-0.074,0.023-0.074-0.223c0-0.1,0.174-0.324,0.521-0.672
					c0.35-0.398,0.572-0.623,0.672-0.672L239.46,208.523z M269.971,217.252l-0.745-0.225v-0.223c0.348-0.049,1.244-0.1,2.685-0.15
					l0.149,0.225l-0.447,0.373H269.971z M261.915,223.967c0.297-0.15,0.646,0.049,1.043,0.594l0.672,1.195l-0.074,0.148
					c-0.348-0.148-0.721-0.422-1.119-0.818C261.94,224.588,261.765,224.215,261.915,223.967z M260.87,229.262
					c-0.547-0.199-0.896-0.447-1.044-0.746c-0.149-0.299-0.299-0.57-0.447-0.82l0.074-0.225c0.447,0.102,0.995,0.623,1.64,1.566
					L260.87,229.262z M258.706,228.143l1.269,2.09v0.074c-0.944-0.498-1.468-1.221-1.567-2.164H258.706z M120.703,105.73
					c0.099,0.148,0.324,0.397,0.672,0.746c0.348,0.397,0.521,0.746,0.521,1.044l-0.149,0.148c-0.795-0.795-1.193-1.441-1.193-1.938
					H120.703z M120.629,107.222c0.398,0.397,0.671,0.721,0.82,0.969l-0.074,0.224c-0.795-0.795-1.319-1.393-1.567-1.79
					C119.908,106.625,120.182,106.824,120.629,107.222z M119.584,108.936l-0.075,0.076l-0.523-0.522h0.076L119.584,108.936z
					 M123.089,125.348c0,0.2-0.173,0.373-0.521,0.523c-0.2,0-0.348-0.052-0.447-0.15c0.348-0.347,0.647-0.521,0.895-0.521
					l0.074-0.074V125.348z M122.867,126.766c0.299-0.3,0.571-0.448,0.82-0.448l0.298,0.3c-0.099,0.148-0.199,0.271-0.298,0.373
					c-0.2,0.099-0.447,0.123-0.746,0.073L122.867,126.766z M124.358,129.078c0-0.347,0.149-0.621,0.447-0.82
					c0.2,0.101,0.299,0.274,0.299,0.523c0,0.247-0.15,0.447-0.447,0.596c-0.101,0-0.175,0-0.225,0
					C124.383,129.328,124.358,129.228,124.358,129.078z M140.696,133.778l-0.076,0.224l-0.447,0.075
					c-0.099-0.101-0.149-0.249-0.149-0.448c0.05-0.049,0.248-0.074,0.596-0.074L140.696,133.778z M138.979,132.659l-0.148-0.148
					c0.148-0.399,0.472-0.499,0.969-0.299l0.074,0.299c-0.148,0.148-0.298,0.223-0.447,0.223L138.979,132.659z M151.437,152.65
					c0-0.199,0.101-0.422,0.298-0.67c0.2-0.25,0.373-0.35,0.523-0.299h0.074c0.049,0,0.074,0.074,0.074,0.223l-0.82,0.971
					C151.487,152.975,151.437,152.898,151.437,152.65z M153.6,152.65c0.049,0.348-0.274,0.92-0.969,1.717h-0.15v-0.225
					c0-0.148,0.15-0.422,0.447-0.822C153.177,152.926,153.402,152.701,153.6,152.65z M154.496,155.484l-0.076-0.594
					c0-0.598,0.2-0.848,0.598-0.748C155.018,154.74,154.844,155.188,154.496,155.484z M196.643,183.385l0.074,0.447l-0.15,0.225
					c-0.198,0-0.422-0.123-0.67-0.373v-0.299H196.643z M193.583,183.012c0.249,0,0.523,0.225,0.822,0.672
					c0.198,0.25,0.447,0.645,0.746,1.193c-0.101,0.1-0.199,0.148-0.298,0.148c-0.2,0-0.447-0.273-0.746-0.82
					c-0.348-0.596-0.548-0.92-0.597-0.969L193.583,183.012z M194.181,186.295c-0.299-0.201-0.721-0.646-1.268-1.344
					c-0.449-0.596-0.671-0.92-0.671-0.969c0.049-0.1,0.074-0.199,0.074-0.299h0.225c0.397,0.645,1.018,1.441,1.865,2.387
					L194.181,186.295z M203.73,195.096l-0.896,0.598l-0.223-0.148c0.049-0.15,0.198-0.324,0.447-0.523
					c0.198-0.148,0.323-0.223,0.373-0.223L203.73,195.096z M202.386,197.186c0-0.35,0.225-0.621,0.672-0.82
					c0.248-0.1,0.647-0.25,1.193-0.447l0.224,0.148c-0.449,0.895-0.995,1.344-1.642,1.344
					C202.784,197.41,202.636,197.334,202.386,197.186z M202.312,198.305c0.198-0.35,0.621-0.598,1.268-0.746
					c0.548-0.148,0.995-0.148,1.343,0l-2.312,0.82C202.51,198.379,202.411,198.354,202.312,198.305z M197.09,219.49v0.223
					c0,0.15-0.074,0.273-0.225,0.373c-0.198,0.1-0.422,0.199-0.671,0.299c-0.248-0.1-0.373-0.25-0.373-0.447
					c0-0.248,0.175-0.373,0.523-0.373h0.672L197.09,219.49z M197.91,220.684c0,0.1,0.025,0.197,0.075,0.299
					c0,0.348-0.248,0.521-0.746,0.521l-0.521-0.074l-0.074-0.373c0-0.299,0.223-0.447,0.67-0.447L197.91,220.684z"/>
			</g>
		</g>
	</g>
</g>
</svg>
