<?xml version="1.0" encoding="utf-8"?>
<!-- Generator: Adobe Illustrator 16.0.0, SVG Export Plug-In . SVG Version: 6.00 Build 0)  -->
<!DOCTYPE svg PUBLIC "-//W3C//DTD SVG 1.1//EN" "http://www.w3.org/Graphics/SVG/1.1/DTD/svg11.dtd">
<svg version="1.1" id="Calque_1" xmlns="http://www.w3.org/2000/svg" xmlns:xlink="http://www.w3.org/1999/xlink" x="0px" y="0px"
	 width="360px" height="300px" viewBox="0 0 360 300" enable-background="new 0 0 360 300" xml:space="preserve">
<g>
	<path fill-rule="evenodd" clip-rule="evenodd" fill="#FF4E5E" d="M308.384,256.184c12.561,0,22.832-10.262,22.832-22.803
		c0-12.545-10.271-22.812-22.832-22.812h-3.672c-12.555,0-22.83-10.264-22.83-22.805c0-12.54,10.275-22.807,22.83-22.807h20.686
		c12.561,0,22.833-10.263,22.833-22.809c0-12.541-10.272-22.804-22.833-22.804h-38.913c-12.56,0-22.831-10.268-22.831-22.813
		c0-12.541,10.271-22.803,22.831-22.803h14.796c12.556,0,22.832-10.263,22.832-22.808s-10.276-22.809-22.832-22.809H96.653
		c-12.554,0-22.831,10.264-22.831,22.809S84.099,73.73,96.653,73.73h13.768c12.56,0,22.833,10.262,22.833,22.803
		c0,12.545-10.272,22.813-22.833,22.813H34.602c-12.56,0-22.833,10.263-22.833,22.804c0,12.546,10.272,22.809,22.833,22.809h17.282
		c12.56,0,22.833,10.267,22.833,22.807c0,12.541-7.641,22.805-16.986,22.805c-9.347,0-16.998,10.267-16.998,22.812
		c0,12.541,10.276,22.803,22.833,22.803H308.384z"/>
	<g>
		<g>
			<g>
				<path fill-rule="evenodd" clip-rule="evenodd" fill="#F8B334" d="M83.219,143.291c2.688-3.021,5.38-5.646,8.08-7.875
					c4.166-3.641,8.247-6.53,12.246-8.674c11.079-6.374,21.55-8.141,31.42-5.318c10.575,3,18.365,10.877,23.381,23.625
					c5.326,11.987,5.322,22.733-0.025,32.233c-5.168,8.797-13.854,15.029-26.056,18.715c-4.317,1.009-9.2,1.791-14.66,2.334
					c-3.677,0.271-7.503,0.371-11.482,0.304c-4.035-0.209-8.386-0.601-13.047-1.179c-1.09-0.341-2.338-0.68-3.752-1.042
					c-2.502-0.692-5.019-1.612-7.555-2.763c-1.423-1.146-2.924-2.092-4.507-2.855c-1.706-1.813-3.25-3.612-4.628-5.404
					c-1.024-1.311-1.815-2.637-2.378-3.983c-0.676-1.615-1.093-3.181-1.248-4.688c-0.364-2.374-0.533-4.673-0.513-6.894
					c0.322-1.873,0.696-3.614,1.134-5.212c0.85-2.883,1.868-5.361,3.052-7.441c0.818-1.441,1.516-2.604,2.1-3.476
					C77.716,149.774,80.534,146.311,83.219,143.291z"/>
			</g>
			<g>
				<path fill-rule="evenodd" clip-rule="evenodd" fill="#FFEEA9" d="M106.5,165.541c-2.865-6.854-2.89-13.72-0.076-20.578
					c2.818-6.861,7.652-11.732,14.51-14.6c6.857-2.866,13.716-2.886,20.579-0.071c6.863,2.812,11.729,7.653,14.595,14.507
					c2.868,6.861,2.894,13.718,0.075,20.578c-2.814,6.869-7.648,11.73-14.506,14.598c-6.857,2.866-13.717,2.895-20.583,0.073
					C114.235,177.234,109.369,172.4,106.5,165.541z"/>
			</g>
		</g>
		
			<path fill-rule="evenodd" clip-rule="evenodd" fill="none" stroke="#FFFFFF" stroke-width="13.6634" stroke-linecap="round" stroke-linejoin="round" stroke-miterlimit="10" d="
			M246.985,76.002c-26.582,1.009-53.174,7.863-79.769,20.563c-0.778,3.639-1.215,7.265-1.383,10.859
			c-2.286,1.428-4.475,2.798-6.609,4.125c-0.84-1.39-1.526-2.611-1.902-3.509c-1.179-2.82-1.917-5.352-2.225-7.592
			c-0.074-0.487-0.078-1.116-0.065-1.77c2.498-1.053,4.772-2.032,6.648-2.883c1.109-3.775,1.042-7.144-0.195-10.105
			c-0.676-1.616-1.749-2.666-3.216-3.153c-20.388,9.783-32.712,16.759-36.978,20.912c0.806,1.55,1.7,3.313,2.677,5.274
			c2.711,0.44,8.497-1.026,17.346-4.411c0.618-0.249,1.153-0.463,1.751-0.703c-0.068,1.295-0.016,3.051,0.188,5.343
			c0.063,2.585,1.047,6.189,2.856,10.717c-1.075,0.67-2.204,1.367-3.228,1.998c-0.206,14.615,6.947,30.967,21.466,49.07
			c0.887-0.289,1.826-0.58,2.784-0.878c1.74,3.787,3.423,6.583,5.043,8.266c1.485,1.748,2.7,3.026,3.67,3.887
			c-0.59,0.258-1.123,0.479-1.734,0.744c-8.625,3.921-13.732,7.01-15.319,9.256c0.71,2.073,1.333,3.94,1.874,5.611
			c5.952-0.12,19.571-3.999,40.858-11.632c0.68-1.396,0.687-2.896,0.012-4.512c-1.236-2.954-3.587-5.368-7.058-7.24
			c-1.917,0.749-4.216,1.672-6.72,2.709c-0.475-0.448-0.92-0.894-1.211-1.28c-1.379-1.792-2.664-4.104-3.844-6.926
			c-0.326-0.779-0.666-1.923-1.015-3.222c2.361-0.683,4.859-1.394,7.462-2.119c2.092,2.392,4.279,4.789,6.656,7.211
			c23.46-8.866,45.996-22.396,67.605-40.594c21.9-18.634,31.096-32.343,27.574-41.144C286.731,79.448,272.062,75.152,246.985,76.002
			z"/>
		<g>
			<g>
				<g>
					<g>
						<path fill-rule="evenodd" clip-rule="evenodd" fill="#F0F8FF" d="M155.645,93.824c-0.155,0.38-0.259,0.895-0.304,1.542
							c-0.344,2.199-0.427,3.892-0.244,5.083c0.308,2.24,1.046,4.771,2.225,7.592c0.508,1.213,1.444,2.876,2.801,4.992
							c-0.808,0.338-1.384,0.653-1.73,0.964c-2.329,1.604-5.028,3.832-8.096,6.699c-0.963,0.717-1.896,1.506-2.804,2.355
							l-0.929-2.221c-2.134-5.103-3.24-9.066-3.311-11.878c-0.297-3.355-0.303-5.639-0.024-6.865
							c0.044-0.647,0.27-1.611,0.686-2.887c0.133-0.056,0.267-0.112,0.405-0.17L155.645,93.824z"/>
					</g>
					<g>
						<path fill-rule="evenodd" clip-rule="evenodd" fill="#E5D2C6" d="M123.968,108.725c-0.977-1.961-1.871-3.725-2.677-5.274
							c4.266-4.153,16.59-11.129,36.978-20.912c1.467,0.487,2.541,1.537,3.216,3.153c1.238,2.962,1.304,6.33,0.195,10.105
							c-4.781,2.158-11.571,4.996-20.367,8.517C132.465,107.698,126.68,109.165,123.968,108.725z"/>
					</g>
				</g>
				<g>
					<g>
						<path fill-rule="evenodd" clip-rule="evenodd" fill="#F0F8FF" d="M165.113,165.197c1.247-0.041,2.46-0.158,3.648-0.34
							c4.194-0.173,7.678-0.526,10.458-1.051c0.462-0.036,1.091-0.226,1.897-0.563c0.554,2.453,1.081,4.287,1.588,5.499
							c1.18,2.821,2.465,5.134,3.844,6.926c0.717,0.961,1.979,2.089,3.785,3.387c0.492,0.425,0.936,0.72,1.314,0.876l-11.661,4.404
							c-0.138,0.058-0.271,0.112-0.405,0.169c-1.203-0.607-2.048-1.123-2.54-1.547c-1.069-0.664-2.689-2.273-4.866-4.832
							c-1.956-2.034-3.999-5.603-6.133-10.708L165.113,165.197z"/>
					</g>
					<g>
						<path fill-rule="evenodd" clip-rule="evenodd" fill="#E5D2C6" d="M160.666,197.624c-0.541-1.671-1.164-3.538-1.874-5.611
							c1.587-2.246,6.695-5.335,15.319-9.256c8.684-3.789,15.474-6.627,20.367-8.517c3.471,1.872,5.821,4.286,7.058,7.24
							c0.675,1.615,0.668,3.116-0.012,4.512C180.237,193.625,166.618,197.504,160.666,197.624z"/>
					</g>
				</g>
			</g>
			<g>
				<path fill-rule="evenodd" clip-rule="evenodd" fill="#CBD0EC" d="M172.032,103.557l24.197,57.875
					c-13.311,3.67-23.938,6.77-31.881,9.307c-14.52-18.104-21.672-34.455-21.466-49.07
					C150.925,116.722,160.642,110.688,172.032,103.557z"/>
			</g>
			<g>
				<path fill-rule="evenodd" clip-rule="evenodd" fill="#E5D2C6" d="M290.987,88.876c3.521,8.801-5.674,22.51-27.574,41.144
					c-21.609,18.197-44.146,31.728-67.605,40.594c-12.102-12.32-20.5-24.282-25.2-35.902c-5.037-12.424-6.166-25.14-3.391-38.146
					c26.595-12.7,53.187-19.555,79.769-20.563C272.062,75.152,286.731,79.448,290.987,88.876z"/>
				<g>
					<defs>
						<path id="SVGID_1_" d="M290.987,88.876c3.521,8.801-5.674,22.51-27.574,41.144c-21.609,18.197-44.146,31.728-67.605,40.594
							c-12.102-12.32-20.5-24.282-25.2-35.902c-5.037-12.424-6.166-25.14-3.391-38.146c26.595-12.7,53.187-19.555,79.769-20.563
							C272.062,75.152,286.731,79.448,290.987,88.876z"/>
					</defs>
					<clipPath id="SVGID_2_">
						<use xlink:href="#SVGID_1_"  overflow="visible"/>
					</clipPath>
					<g clip-path="url(#SVGID_2_)">
						<path fill-rule="evenodd" clip-rule="evenodd" fill="#BCADA2" d="M282.937,119.488
							c-17.801-18.776-24.623-34.721-20.467-47.821c10.755-2.609,20.445-0.969,29.06,4.905c1.896,1.891,3.433,4.246,4.616,7.075
							c1.123,2.686,1.78,5.012,1.971,6.986c0.118,2.162-0.207,4.982-0.959,8.461c-0.597,1.979-2.246,5.207-4.967,9.658
							C289.785,112.439,286.702,116.025,282.937,119.488z"/>
					</g>
					<path clip-path="url(#SVGID_2_)" fill="#BCADA2" d="M180.655,75.908c0,0-14.105,56.593,39.549,98.305l28.157-10.987
						c0,0-44.389-37.902-45.362-98.214L180.655,75.908z"/>
				</g>
				<g>
					<path fill-rule="evenodd" clip-rule="evenodd" fill="#FFFFFF" d="M248.964,96.027c2.704,1.553,4.537,3.867,5.504,6.933
						c0.914,2.94,0.973,5.915,0.18,8.93c-1.236,3.84-4.078,6.684-8.512,8.538c-7.527,3.147-12.643,1.493-15.342-4.96
						c-1.237-2.961-1.672-5.694-1.301-8.218c0.329-4.877,3.058-8.546,8.188-11.003C241.871,94.169,245.634,94.105,248.964,96.027z"
						/>
					<g>
						<path fill-rule="evenodd" clip-rule="evenodd" fill="#CBD0EC" d="M233.399,113.196c-0.899-2.151-1.219-4.229-0.953-6.238
							c0.303-3.438,2.332-5.944,6.098-7.52c3.092-1.293,5.865-1.267,8.323,0.073c2.015,1.047,3.476,2.646,4.375,4.798
							c0.954,2.284,1.231,4.465,0.832,6.529c-0.599,3.092-2.647,5.374-6.142,6.835C239.882,120.202,235.704,118.711,233.399,113.196
							z"/>
					</g>
					<g>
						<defs>
							<path id="SVGID_3_" d="M233.892,112.934c-0.851-2.032-1.146-3.991-0.896-5.881c0.282-3.255,2.198-5.62,5.751-7.106
								c2.922-1.222,5.539-1.196,7.859,0.073c1.904,0.991,3.283,2.497,4.133,4.529c0.902,2.157,1.162,4.215,0.781,6.16
								c-0.564,2.92-2.499,5.069-5.799,6.45C240.011,119.547,236.067,118.142,233.892,112.934z"/>
						</defs>
						<clipPath id="SVGID_4_">
							<use xlink:href="#SVGID_3_"  overflow="visible"/>
						</clipPath>
						<g opacity="0.5" clip-path="url(#SVGID_4_)">
							<path fill-rule="evenodd" clip-rule="evenodd" fill="#FFFFFF" d="M248.04,96.653l0.201-0.084
								c0.631,0.367,1.352,0.776,2.172,1.22c-0.07,0.974-0.708,3.222-1.926,6.729c-1.276,3.376-4.402,5.152-9.375,5.345
								c-4.977,0.185-8.097,2.358-9.357,6.513c-0.448-1.07-0.654-1.938-0.609-2.585c-0.24-1.325-0.305-3.186-0.207-5.597
								c0.469-1.148,1.086-2.12,1.857-2.915c1.348-0.563,3.223-0.792,5.633-0.698c2.354-0.031,4.566-0.409,6.641-1.11
								C245.009,102.816,246.664,100.543,248.04,96.653z"/>
						</g>
					</g>
				</g>
				<g opacity="0.5">
					<path fill-rule="evenodd" clip-rule="evenodd" fill="#FFFFFF" d="M177.777,96.888l-0.085-0.205
						c1.878-0.785,4.302-1.798,7.259-3.035c8.256-3.295,17.269-6.108,27.026-8.458c9.571-2.418,18.903-4.267,28.003-5.544
						c8.832-1.167,17.628-1.291,26.384-0.371c8.755,0.921,13.789,1.814,15.1,2.692c1.121,0.789,1.695,1.975,1.724,3.546
						c-0.036,1.432-6.424,1.26-19.17-0.519c-12.941-1.854-29.607-0.734-50.002,3.378C196.8,91.776,184.721,94.614,177.777,96.888z"
						/>
					<g>
						<path fill-rule="evenodd" clip-rule="evenodd" fill="#FFFFFF" d="M275.558,91.071c-1.829-0.977-2.943-1.934-3.336-2.873
							c-1.182-2.827-0.357-4.829,2.467-6.01c4.167-1.742,7.402-0.8,9.707,2.818c1.291,3.087,0.522,5.223-2.297,6.402
							C279.942,92.309,277.767,92.193,275.558,91.071z"/>
					</g>
				</g>
			</g>
		</g>
	</g>
</g>
</svg>
